o doomcone
v -1.0 -1.0 0.0
v -0.980785 -1.0 -0.195090
v -0.923880 -1.0 -0.382683
v -0.831470 -1.0 -0.555570
v -0.707107 -1.0 -0.707107
v -0.555570 -1.0 -0.831470
v -0.382683 -1.0 -0.923880
v -0.195090 -1.0 -0.980785
v -0.0 -1.0 -1.0
v 0.195090 -1.0 -0.980785
v 0.382683 -1.0 -0.923880
v 0.555570 -1.0 -0.831470
v 0.555570 -1.0 0.831470
v 0.382683 -1.0 0.923880
v 0.195090 -1.0 0.980785
v 0.0 -1.0 1.0
v -0.195090 -1.0 0.980785
v -0.382683 -1.0 0.923880
v -0.555570 -1.0 0.831470
v -0.707107 -1.0 0.707107
v -0.831470 -1.0 0.555570
v -0.923880 -1.0 0.382683
v -0.980785 -1.0 0.195090
v 0.0 1.0 0.0
v -0.500000 -0.0 0.0
v -0.446809 0.088876 -0.088876
v -0.326736 0.333727 -0.064992
v -0.302117 0.395766 0.0
v -0.327250 0.327250 -0.074396
v -0.387747 0.160610 -0.160610
v -0.347030 0.248755 -0.143745
v -0.325356 0.217396 -0.217396
v -0.327250 0.074396 -0.327250
v -0.347030 0.143745 -0.248755
v -0.261204 0.261204 -0.261204
v -0.196213 0.293653 -0.293653
v -0.326736 0.064992 -0.333726
v -0.302117 0.0 -0.395766
v -0.284608 -0.024562 -0.425946
v -0.130882 0.315977 -0.315977
v -0.269519 -0.053611 -0.450401
v -0.233793 -0.096840 -0.493888
v -0.213112 -0.113777 -0.514498
v -0.065449 0.329036 -0.329036
v -0.195968 -0.130941 -0.528624
v -0.157638 -0.157638 -0.554133
v -0.117802 -0.176304 -0.575923
v -0.114824 -0.177140 -0.577261
v -0.078928 -0.190550 -0.587501
v -0.039473 -0.198445 -0.595335
v -0.0 -0.200000 -0.600000
v -0.0 0.333333 -0.333333
v 0.114824 -0.177140 -0.577261
v 0.078928 -0.190550 -0.587501
v 0.039473 -0.198445 -0.595335
v 0.065449 0.329036 -0.329036
v 0.157638 -0.157638 -0.554133
v 0.195967 -0.130941 -0.528624
v 0.213112 -0.113777 -0.514498
v 0.130882 0.315977 -0.315977
v 0.117802 -0.176304 -0.575923
v 0.269519 -0.053611 -0.450401
v 0.284608 -0.024562 -0.425946
v 0.196213 0.293653 -0.293653
v 0.233793 -0.096840 -0.493888
v 0.326736 0.064992 -0.333726
v 0.327250 0.074396 -0.327250
v 0.261204 0.261204 -0.261204
v 0.302117 0.0 -0.395766
v 0.347030 0.143745 -0.248755
v 0.325356 0.217396 -0.217396
v 0.387747 0.160610 -0.160610
v 0.347030 0.248755 -0.143745
v 0.446809 0.088876 -0.088876
v 0.327250 0.327250 -0.074397
v 0.326736 0.333726 -0.064992
v 0.500000 0.0 -0.0
v 0.302117 0.395766 -0.0
v 0.543398 -0.108089 0.108089
v 0.269519 0.450401 0.053611
v 0.284608 0.425946 0.024562
v 0.571242 -0.236616 0.236616
v 0.233793 0.493888 0.096840
v 0.213112 0.514498 0.113777
v 0.195968 0.528624 0.130941
v 0.157638 0.554133 0.157638
v 0.117802 0.575922 0.176304
v 0.475444 -0.711552 0.711552
v 0.355614 -0.858528 0.858528
v 0.114824 0.577261 0.177140
v 0.078928 0.587501 0.190550
v 0.039473 0.595335 0.198445
v 0.191412 -0.962295 0.962295
v 0.0 0.600000 0.200000
v -0.191412 -0.962295 0.962295
v -0.039473 0.595335 0.198445
v -0.078928 0.587501 0.190550
v -0.355614 -0.858528 0.858528
v -0.117802 0.575922 0.176304
v -0.114824 0.577261 0.177140
v -0.475444 -0.711552 0.711552
v -0.157638 0.554133 0.157638
v -0.546918 -0.546918 0.546918
v -0.575639 -0.384629 0.384629
v -0.195968 0.528624 0.130941
v -0.571242 -0.236616 0.236616
v -0.213112 0.514498 0.113777
v -0.233793 0.493888 0.096840
v -0.543398 -0.108089 0.108089
v -0.269519 0.450401 0.053611
v -0.284608 0.425946 0.024562
v 1.0 -1.0 -1.0
v 1.0 -1.195090 -0.980785
v 1.0 -1.382683 -0.923880
v 1.0 -1.555570 -0.831470
v 1.0 -1.707107 -0.707107
v 1.0 -1.831470 -0.555570
v 1.0 -1.923879 -0.382683
v 1.0 -1.980785 -0.195090
v 1.0 -2.0 0.0
v 1.0 -1.980785 0.195090
v 1.0 -1.923879 0.382683
v 1.0 -1.831470 0.555570
v 1.0 -1.707107 0.707107
v 1.0 -1.555570 0.831470
v 1.0 -1.382683 0.923880
v 1.0 -1.195090 0.980785
v 1.0 -1.0 1.0
v 1.0 -0.804910 0.980785
v 1.0 -0.617316 0.923880
v 1.0 -0.444430 0.831470
v 1.0 -0.292893 0.707107
v 1.0 -0.168530 0.555570
v 1.0 -0.076120 0.382683
v 1.0 -0.019215 0.195090
v 1.0 0.0 0.0
v 1.0 -0.019215 -0.195090
v 1.0 -0.076120 -0.382683
v 1.0 -0.168530 -0.555570
v 1.0 -0.292893 -0.707107
v 1.0 -0.444430 -0.831470
v 1.0 -0.617316 -0.923880
v 1.0 -0.804910 -0.980785
v -1.0 -1.0 0.0
v 0.333333 -1.0 -0.666667
v 0.333333 -1.0 0.666667
v 0.0 -0.500000 0.0
v -0.061420 -0.539728 0.091554
v 0.0 -0.697883 0.395766
v -0.048233 -0.663500 0.336500
v -0.087807 -0.578622 0.174541
v -0.083641 -0.619038 0.254551
v 0.037058 -0.711921 0.431141
v 0.147095 -0.739494 0.507964
v 0.091554 -0.460272 -0.061421
v 0.305404 -0.737309 0.596116
v 0.174541 -0.421378 -0.087807
v 0.460565 -0.689284 0.657991
v 0.254551 -0.380962 -0.083641
v 0.495771 -0.664729 0.664729
v 0.395766 -0.302117 0.0
v 0.336500 -0.336500 -0.048233
v 0.431141 -0.288079 0.037058
v 0.596219 -1.0 -0.798110
v 0.511528 -0.446819 -0.511528
v 0.529446 -0.364156 -0.424857
v 0.503829 -0.468316 -0.531684
v 0.499582 -0.713067 -0.692717
v 0.534429 -0.850324 -0.752472
v 0.489581 -0.586217 -0.619271
v 0.549595 -0.321984 -0.367228
v 0.578331 -0.251963 -0.239553
v 0.561682 -0.278597 -0.298815
v 0.507964 -0.260506 0.147095
v 0.571999 -0.262093 0.262093
v 0.595335 -0.213996 -0.118419
v 0.588034 -0.221240 -0.154905
v 0.595335 -0.213996 0.118419
v 0.588034 -0.221240 0.154905
v 0.600000 -0.200000 -0.0
v 0.578331 -0.251963 0.239553
v 0.596219 -1.0 0.798110
v 0.499583 -0.713067 0.692717
v 0.534429 -0.850324 0.752473
v 0.333333 -1.0 0.666667
v 0.581744 -1.0 -0.790872
vn -0.8910 0.4455 -0.0878
vn -0.8567 0.4455 -0.2599
vn -0.7896 0.4455 -0.4220
vn -0.6921 0.4455 -0.5680
vn -0.5680 0.4455 -0.6921
vn -0.4220 0.4455 -0.7896
vn -0.2599 0.4455 -0.8567
vn -0.0878 0.4455 -0.8910
vn 0.0878 0.4455 -0.8910
vn 0.2599 0.4455 -0.8567
vn 0.4220 0.4455 -0.7896
vn 0.5680 0.4455 -0.6921
vn 0.6921 0.4455 -0.5680
vn 0.7896 0.4455 -0.4220
vn 0.8567 0.4455 -0.2599
vn 0.8910 0.4455 -0.0878
vn 0.8910 0.4455 0.0878
vn 0.8567 0.4455 0.2599
vn 0.7896 0.4455 0.4220
vn 0.6921 0.4455 0.5680
vn 0.5680 0.4455 0.6921
vn 0.4220 0.4455 0.7896
vn 0.2599 0.4455 0.8567
vn 0.0878 0.4455 0.8910
vn -0.0878 0.4455 0.8910
vn -0.2599 0.4455 0.8567
vn -0.4220 0.4455 0.7896
vn -0.5680 0.4455 0.6921
vn -0.6921 0.4455 0.5680
vn -0.7896 0.4455 0.4220
vn -0.0000 -1.0000 -0.0000
vn -0.8567 0.4455 0.2599
vn -0.8910 0.4455 0.0878
vn 0.8910 0.0878 0.4455
vn 0.8567 0.2599 0.4455
vn 0.7896 0.4220 0.4455
vn 0.6921 0.5680 0.4455
vn 0.5680 0.6921 0.4455
vn 0.4220 0.7896 0.4455
vn 0.2599 0.8567 0.4455
vn 0.0878 0.8910 0.4455
vn -0.0878 0.8910 0.4455
vn -0.2599 0.8567 0.4455
vn -0.4220 0.7896 0.4455
vn -0.6921 0.5680 0.4455
vn -0.7896 0.4220 0.4455
vn -0.8567 0.2599 0.4455
vn -0.8910 0.0878 0.4455
vn -0.8910 -0.0878 0.4455
vn -0.8567 -0.2599 0.4455
vn -0.7896 -0.4220 0.4455
vn -0.6921 -0.5680 0.4455
vn -0.5680 -0.6921 0.4455
vn -0.4220 -0.7896 0.4455
vn -0.2599 -0.8567 0.4455
vn -0.0878 -0.8910 0.4455
vn 0.0878 -0.8910 0.4455
vn 0.2599 -0.8567 0.4455
vn 0.4220 -0.7896 0.4455
vn 0.5680 -0.6921 0.4455
vn 0.6921 -0.5680 0.4455
vn 0.7896 -0.4220 0.4455
vn 0.8567 -0.2599 0.4455
vn 0.8910 -0.0878 0.4455
vn -0.4455 -0.0878 -0.8910
vn -0.4455 -0.2599 -0.8567
vn -0.4455 -0.4220 -0.7896
vn -0.4455 -0.5680 -0.6921
vn -0.4455 -0.6921 -0.5680
vn -0.4455 -0.7896 -0.4220
vn -0.4455 -0.8567 -0.2599
vn -0.4455 -0.8910 -0.0878
vn -0.4455 -0.8910 0.0878
vn -0.4455 -0.8567 0.2599
vn -0.4455 -0.7896 0.4220
vn -0.4455 -0.6921 0.5680
vn -0.4455 -0.5680 0.6921
vn -0.4455 -0.4220 0.7896
vn -0.4455 -0.2599 0.8567
vn -0.4455 -0.0878 0.8910
vn -0.4455 0.0878 0.8910
vn -0.4455 0.2599 0.8567
vn -0.4455 0.4220 0.7896
vn -0.4455 0.5680 0.6921
vn -0.4455 0.6921 0.5680
vn -0.4455 0.7896 0.4220
vn -0.4455 0.8567 0.2599
vn -0.4455 0.8910 0.0878
vn -0.4455 0.8910 -0.0878
vn -0.4455 0.8567 -0.2599
vn -0.4455 0.7896 -0.4220
vn -0.4455 0.6921 -0.5680
vn -0.4455 0.5680 -0.6921
vn -0.4455 0.4220 -0.7896
vn 1.0000 -0.0000 -0.0000
vn -0.4455 0.2599 -0.8567
vn -0.4455 0.0878 -0.8910
vn -0.5680 0.6921 0.4455
vn 0.3423 -0.6434 0.6847
vt 0.920200 0.026697
vt 0.629767 0.072225
vt 0.646361 0.055160
vt 0.905977 0.0
vt 0.780796 0.858755
vt 0.647713 0.737730
vt 0.771996 0.839083
vt 0.781151 0.861286
vt 0.790228 0.885072
vt 0.930195 0.060498
vt 0.614828 0.089410
vt 0.935578 0.100105
vt 0.601504 0.106323
vt 0.785420 0.902577
vt 0.936141 0.143995
vt 0.641006 0.125905
vt 0.621756 0.109104
vt 0.765207 0.903672
vt 0.746306 0.905496
vt 0.931863 0.190482
vt 0.665998 0.151386
vt 0.659991 0.142937
vt 0.643481 0.127241
vt 0.728665 0.907945
vt 0.922908 0.237780
vt 0.685328 0.181301
vt 0.682027 0.173677
vt 0.672716 0.158886
vt 0.712225 0.910954
vt 0.694492 0.211757
vt 0.692563 0.199856
vt 0.688482 0.187436
vt 0.909621 0.284070
vt 0.694494 0.212584
vt 0.690205 0.240673
vt 0.693274 0.231701
vt 0.694737 0.222046
vt 0.892512 0.327574
vt 0.696937 0.914489
vt 0.672492 0.261171
vt 0.679613 0.255443
vt 0.685710 0.248404
vt 0.872239 0.366620
vt 0.682784 0.918537
vt 0.644492 0.271477
vt 0.650932 0.270357
vt 0.662357 0.266559
vt 0.671919 0.261603
vt 0.849580 0.399708
vt 0.669792 0.923110
vt 0.621072 0.272929
vt 0.637228 0.272604
vt 0.825407 0.425565
vt 0.611463 0.271814
vt 0.658046 0.928230
vt 0.580874 0.265496
vt 0.602100 0.270774
vt 0.818765 0.430295
vt 0.789239 0.404351
vt 0.758598 0.383098
vt 0.726653 0.366040
vt 0.693115 0.352926
vt 0.686166 0.351128
vt 0.578300 0.264377
vt 0.647713 0.933937
vt 0.782564 0.645172
vt 0.771772 0.665393
vt 0.647713 0.737730
vt 0.661307 0.714980
vt 0.666823 0.700741
vt 0.799531 0.633906
vt 0.879496 0.738205
vt 0.879496 0.941762
vt 0.866278 0.953391
vt 0.852146 0.942713
vt 0.842612 0.918561
vt 0.840985 0.916380
vt 0.726421 0.598942
vt 0.755071 0.614169
vt 0.676284 0.639843
vt 0.673289 0.611343
vt 0.831007 0.895748
vt 0.693028 0.579331
vt 0.664446 0.583383
vt 0.827728 0.885786
vt 0.822948 0.876934
vt 0.654939 0.554794
vt 0.661441 0.574574
vt 0.650755 0.555015
vt 0.816307 0.861088
vt 0.813943 0.853533
vt 0.811009 0.847677
vt 0.806631 0.836808
vt 0.803776 0.827242
vt 0.932907 0.640243
vt 0.935911 0.601417
vt 0.966100 0.562986
vt 0.964539 0.642470
vt 0.803667 0.826633
vt 0.801083 0.820327
vt 0.799531 0.814670
vt 0.908457 0.634067
vt 0.909718 0.623836
vt 0.318532 0.357079
vt 0.311553 0.363930
vt 0.308716 0.337198
vt 0.833658 0.671092
vt 0.908457 0.738205
vt 0.827467 0.671448
vt 0.302557 0.303764
vt 0.309705 0.298048
vt 0.839382 0.668359
vt 0.845814 0.664268
vt 0.293312 0.264911
vt 0.320788 0.246211
vt 0.852362 0.659212
vt 0.852809 0.658714
vt 0.281338 0.222133
vt 0.339084 0.190175
vt 0.859605 0.650416
vt 0.361026 0.137084
vt 0.267093 0.177074
vt 0.867105 0.640521
vt 0.251126 0.131466
vt 0.383617 0.091184
vt 0.234049 0.087060
vt 0.404927 0.054039
vt 0.871033 0.634953
vt 0.874778 0.627844
vt 0.216520 0.045564
vt 0.310959 0.382931
vt 0.306957 0.393471
vt 0.305010 0.393920
vt 0.287586 0.330456
vt 0.199213 0.008572
vt 0.882718 0.612373
vt 0.423985 0.025488
vt 0.440473 0.004560
vt 0.887207 0.603374
vt 0.890724 0.593490
vt 0.566192 0.566909
vt 0.576066 0.564947
vt 0.503261 0.692463
vt 0.496602 0.656548
vt 0.556407 0.570632
vt 0.592662 0.560505
vt 0.513203 0.735216
vt 0.600121 0.557998
vt 0.606621 0.556925
vt 0.527010 0.784505
vt 0.618110 0.554508
vt 0.545006 0.838614
vt 0.627682 0.551981
vt 0.566870 0.893587
vt 0.628252 0.551791
vt 0.635162 0.551170
vt 0.591162 0.942775
vt 0.640987 0.550447
vt 0.615095 0.977658
vt 0.645174 0.549686
vt 0.641365 0.715026
vt 0.634314 0.739439
vt 0.631008 0.761956
vt 0.630939 0.784060
vt 0.634148 0.807113
vt 0.638852 0.824085
vt 0.635017 0.990591
vt 0.647713 0.550602
vt 0.647713 0.697243
vt 0.337186 0.355882
vt 0.329419 0.252926
vt 0.341192 0.292536
vt 0.364429 0.013668
vt 0.363121 0.137223
vt 0.351631 0.127436
vt 0.359259 0.006810
vt 0.364052 0.013044
vt 0.380741 0.030292
vt 0.398965 0.177972
vt 0.391721 0.167192
vt 0.378286 0.152429
vt 0.371519 0.022098
vt 0.386300 0.034008
vt 0.392450 0.039418
vt 0.431269 0.230209
vt 0.427636 0.236836
vt 0.416583 0.206775
vt 0.406964 0.049006
vt 0.449043 0.193072
vt 0.416100 0.053242
vt 0.424755 0.059213
vt 0.463530 0.158759
vt 0.445616 0.068559
vt 0.475038 0.127846
vt 0.483955 0.100408
vt 0.448349 0.069006
vt 0.471522 0.080122
vt 0.490653 0.076276
vt 0.800973 0.571569
vt 0.813064 0.556142
vt 0.834538 0.558697
vt 0.800786 0.595292
vt 0.853082 0.559906
vt 0.801300 0.625651
vt 0.799531 0.617137
vt 0.799997 0.597677
vt 0.868951 0.559931
vt 0.806706 0.651634
vt 0.804209 0.646144
vt 0.801365 0.633469
vt 0.882341 0.558880
vt 0.817703 0.668200
vt 0.817251 0.667935
vt 0.812023 0.662755
vt 0.807953 0.655860
vt 0.893376 0.556815
vt 0.821990 0.670446
vt 0.902097 0.553757
vt 0.908457 0.549686
vt 0.482318 0.781740
vt 0.478532 0.774612
vt 0.476827 0.686934
vt 0.478107 0.679313
vt 0.480835 0.668191
vt 0.482318 0.663944
vt 0.473955 0.693957
vt 0.471449 0.766258
vt 0.468701 0.714935
vt 0.469037 0.712311
vt 0.460472 0.736114
vt 0.460644 0.756558
vt 0.507258 0.586073
vt 0.490778 0.603275
vt 0.490653 0.584485
vt 0.531630 0.576969
vt 0.534298 0.576639
vt 0.492619 0.627052
vt 0.796704 0.539143
vt 0.819556 0.426393
vt 0.905977 0.0
vt 0.836425 0.546791
vt 0.871455 0.549686
vt 0.900448 0.547718
vt 0.922289 0.540963
vt 0.936141 0.529680
vt 0.006284 0.287507
vt 0.199213 0.008572
vt 0.0 0.325158
vt 0.003144 0.362495
vt 0.015594 0.398083
vt 0.036874 0.430554
vt 0.066163 0.458659
vt 0.102338 0.481320
vt 0.144008 0.497664
vt 0.189572 0.507065
vt 0.237278 0.509161
vt 0.285294 0.503871
vt 0.331773 0.491398
vt 0.334026 0.364291
vt 0.374931 0.472222
vt 0.359589 0.337362
vt 0.413107 0.447080
vt 0.368187 0.327971
vt 0.361151 0.323359
vt 0.326576 0.220322
vt 0.444837 0.416938
vt 0.325888 0.207298
vt 0.327552 0.186734
vt 0.468899 0.382955
vt 0.329865 0.163374
vt 0.484369 0.346435
vt 0.332137 0.145497
vt 0.490653 0.308784
vt 0.334507 0.131936
vt 0.428161 0.233060
vt 0.428125 0.217299
vt 0.487509 0.271447
vt 0.490653 0.350855
vt 0.576203 0.278585
vt 0.576974 0.283995
vt 0.583315 0.298011
vt 0.502649 0.372514
vt 0.596476 0.311470
vt 0.601713 0.314524
vt 0.522781 0.396118
vt 0.616117 0.323846
vt 0.628231 0.328547
vt 0.550276 0.420761
vt 0.644208 0.336122
vt 0.659812 0.340680
vt 0.584076 0.445494
vt 0.622883 0.469369
vt 0.665206 0.491467
vt 0.709417 0.510940
vt 0.339294 0.536784
vt 0.377003 0.563503
vt 0.409072 0.597565
vt 0.434268 0.637661
vt 0.451624 0.682250
vt 0.460472 0.729619
vt 0.460472 0.777947
vt 0.451624 0.825377
vt 0.434268 0.870086
vt 0.409072 0.910356
vt 0.377003 0.944641
vt 0.339293 0.971621
vt 0.297393 0.990260
vt 0.252912 0.999843
vt 0.207560 1.0
vt 0.163078 0.990726
vt 0.121178 0.972377
vt 0.083469 0.945658
vt 0.051400 0.911596
vt 0.026203 0.871500
vt 0.008848 0.826911
vt 0.0 0.779542
vt 0.0 0.731214
vt 0.008848 0.683784
vt 0.026204 0.639075
vt 0.051400 0.598804
vt 0.083469 0.564520
vt 0.121178 0.537540
vt 0.163079 0.518900
vt 0.207560 0.509318
vt 0.252912 0.509161
vt 0.297393 0.518435
vt 0.753819 0.527038
vt 0.672629 0.683473
vt 0.674703 0.669230
vt 0.779292 0.625633
vt 0.361009 0.336802
vt 0.477421 0.636803
vt 0.473237 0.645590
vt 0.460472 0.663944
vt 0.460472 0.509161
vt 0.472615 0.528264
vt 0.641040 0.833486
vt 0.647713 0.853626
vt 0.647713 0.978409
vt 0.676927 0.648430
vt 0.483494 0.553326
vt 0.488698 0.576066
vt 0.489007 0.598011
vt 0.484371 0.620513
vt 0.343064 0.122397
vt 0.355858 -0.0
vt 0.882163 0.923463
vt 0.891397 0.907558
vt 0.938230 0.826893
vt 0.882672 0.922587
vt 0.881244 0.910819
vt 0.879496 0.866431
vt 0.879496 0.826494
vt 0.881244 0.792542
vt 0.884671 0.765880
vt 0.889648 0.747533
vt 0.895981 0.738205
vt 0.903428 0.738256
vt 0.911703 0.747683
vt 0.920488 0.766123
vt 0.929445 0.792870
vt 0.974624 0.549686
vt 0.971976 0.563121
vt 0.970419 0.600982
vt 0.974624 0.641985
vt 0.647713 0.549686
s 0
f 2/1/1 1/4/1 25/3/1 26/2/1
f 27/5/1 28/7/1 24/6/1
f 24/6/2 31/9/2 29/8/2 27/5/2
f 3/10/2 2/1/2 26/2/2 30/11/2
f 4/12/3 3/10/3 30/11/3 32/13/3
f 24/6/3 32/14/3 31/9/3
f 4/12/4 32/13/4 34/17/4 33/16/4 5/15/4
f 24/6/4 35/18/4 32/14/4
f 24/6/5 36/19/5 35/18/5
f 6/20/5 5/15/5 33/16/5 37/23/5 38/22/5 39/21/5
f 24/6/6 40/24/6 36/19/6
f 7/25/6 6/20/6 39/21/6 41/28/6 42/27/6 43/26/6
f 24/6/7 44/29/7 40/24/7
f 47/30/7 48/34/7 8/33/7 7/25/7 43/26/7 45/32/7 46/31/7
f 51/35/8 9/38/8 8/33/8 48/34/8 49/37/8 50/36/8
f 24/6/8 52/39/8 44/29/8
f 53/40/9 10/43/9 9/38/9 51/35/9 55/42/9 54/41/9
f 52/39/9 24/6/9 56/44/9
f 59/45/10 11/49/10 10/43/10 53/40/10 61/48/10 57/47/10 58/46/10
f 56/44/10 24/6/10 60/50/10
f 62/51/11 63/54/11 12/53/11 11/49/11 59/45/11 65/52/11
f 64/55/11 60/50/11 24/6/11
f 66/56/12 67/64/12 165/63/12 167/62/12 170/61/12 168/60/12 169/59/12 164/58/12 12/53/12 63/54/12 69/57/12
f 68/65/12 64/55/12 24/6/12
f 70/66/13 71/71/13 171/70/13 166/69/13 165/68/13 67/67/13
f 24/72/13 71/74/13 68/73/13
f 24/72/14 73/75/14 71/74/14
f 24/72/15 76/77/15 75/76/15 73/75/15
f 77/78/16 180/81/16 176/80/16 74/79/16
f 76/77/16 24/72/16 78/82/16
f 79/83/17 178/84/17 180/81/17 77/78/17
f 78/82/17 24/72/17 80/86/17 81/85/17
f 82/87/18 181/89/18 179/88/18 178/84/18 79/83/18
f 80/86/18 24/72/18 83/90/18
f 83/90/19 24/72/19 85/92/19 84/91/19
f 85/92/20 24/72/20 86/93/20
f 87/94/21 86/93/21 24/72/21
f 14/95/22 13/98/22 88/97/22 89/96/22
f 87/94/22 24/72/22 91/100/22 90/99/22
f 92/101/23 91/100/23 24/72/23
f 14/95/23 89/96/23 93/103/23 15/102/23
f 93/104/24 16/106/24 15/105/24
f 94/107/24 92/109/24 24/108/24
f 17/110/25 16/106/25 95/111/25
f 24/108/25 96/112/25 94/107/25
f 24/108/26 97/113/26 96/112/26
f 18/114/26 17/110/26 95/111/26 98/115/26
f 24/108/27 99/117/27 100/116/27 97/113/27
f 19/118/27 18/114/27 98/115/27 101/119/27
f 24/108/28 102/120/28 99/117/28
f 103/121/28 20/122/28 19/118/28 101/119/28
f 105/123/29 102/120/29 24/108/29
f 103/121/29 104/125/29 21/124/29 20/122/29
f 22/126/30 21/124/30 104/125/30 106/127/30
f 105/123/30 24/108/30 108/129/30 107/128/30
f 23/130/31 1/135/31 146/134/31 182/133/31 13/132/31 14/131/31 15/105/31 16/106/31 17/110/31 18/114/31 19/118/31 20/122/31 21/124/31 22/126/31
f 110/136/32 108/129/32 24/108/32
f 106/127/32 109/137/32 23/130/32 22/126/32
f 1/135/33 23/130/33 109/137/33 25/138/33
f 110/136/33 24/108/33 28/140/33 111/139/33
f 39/141/34 38/145/34 25/144/34 109/143/34 41/142/34
f 42/146/35 41/142/35 109/143/35 106/147/35
f 43/148/36 42/146/36 106/147/36 104/150/36 45/149/36
f 46/151/37 45/149/37 104/150/37 103/152/37
f 47/153/38 46/151/38 103/152/38 101/154/38
f 48/155/39 47/153/39 101/154/39 98/157/39 49/156/39
f 50/158/40 49/156/40 98/157/40 95/159/40
f 95/159/41 16/167/41 149/166/41 150/165/41 152/164/41 151/163/41 148/162/41 147/161/41 51/160/41 50/158/41
f 55/168/42 51/160/42 147/161/42 155/169/42
f 89/170/43 156/172/43 154/171/43 93/104/43
f 61/173/44 53/177/44 54/176/44 157/175/44 159/174/44
f 58/178/45 57/182/45 162/181/45 161/180/45 163/179/45
f 59/183/46 58/178/46 163/179/46 174/187/46 175/186/46 82/185/46 65/184/46
f 62/188/47 65/184/47 82/185/47 79/189/47
f 63/190/48 62/188/48 79/189/48 77/192/48 69/191/48
f 66/193/49 69/191/49 77/192/49 74/194/49
f 72/195/50 70/197/50 67/196/50 66/193/50 74/194/50
f 70/197/51 72/195/51 71/198/51
f 73/199/52 75/202/52 68/201/52 71/200/52
f 75/202/53 76/206/53 78/205/53 81/204/53 64/203/53 68/201/53
f 81/204/54 80/210/54 83/209/54 84/208/54 60/207/54 64/203/54
f 84/208/55 85/215/55 86/214/55 87/213/55 90/212/55 56/211/55 60/207/55
f 90/212/56 91/217/56 92/109/56 94/107/56 52/216/56 56/211/56
f 52/216/57 94/107/57 96/112/57 97/113/57 100/116/57 44/218/57
f 44/218/58 100/116/58 99/117/58 102/120/58 105/123/58 107/128/58 40/219/58
f 40/220/59 107/225/59 108/224/59 110/223/59 111/222/59 36/221/59
f 28/226/60 27/229/60 29/228/60 35/227/60 36/221/60 111/222/60
f 31/230/61 32/231/61 35/227/61 29/228/61
f 34/232/62 32/234/62 30/233/62
f 30/233/63 26/237/63 37/236/63 33/235/63 34/232/63
f 37/236/64 26/237/64 25/144/64 38/145/64
f 112/238/65 113/241/65 144/240/65 186/239/65 164/58/65
f 113/241/66 114/242/66 144/240/66
f 114/242/67 115/243/67 144/240/67
f 115/243/68 116/244/68 144/240/68
f 116/244/69 117/245/69 144/240/69
f 117/246/70 118/248/70 144/247/70
f 118/248/71 119/249/71 144/247/71
f 119/249/72 120/250/72 144/247/72
f 120/250/73 121/251/73 144/247/73
f 121/251/74 122/252/74 144/247/74
f 122/252/75 123/253/75 144/247/75
f 123/253/76 124/254/76 144/247/76
f 124/254/77 125/255/77 144/247/77
f 125/255/78 126/256/78 144/247/78
f 126/256/79 127/257/79 144/247/79
f 127/257/80 128/258/80 185/134/80 144/247/80
f 128/258/81 129/260/81 184/259/81 182/133/81 146/134/81 144/247/81 185/134/81
f 129/260/82 130/262/82 183/261/82 184/259/82
f 130/262/83 131/266/83 153/265/83 154/171/83 156/172/83 158/264/83 160/263/83 183/261/83
f 131/266/84 132/269/84 150/268/84 149/267/84 153/265/84
f 132/269/85 133/271/85 152/270/85 150/268/85
f 133/271/86 134/273/86 151/272/86 152/270/86
f 134/273/87 135/277/87 179/276/87 181/275/87 175/186/87 174/187/87 148/274/87 151/272/87
f 135/278/88 136/282/88 180/281/88 178/280/88 179/279/88
f 136/282/89 137/285/89 177/284/89 176/283/89 180/281/89
f 137/285/90 138/288/90 173/287/90 172/286/90 177/284/90
f 138/288/91 139/291/91 166/290/91 171/289/91 173/287/91
f 139/291/92 140/292/92 167/62/92 165/63/92 166/290/92
f 140/292/93 141/293/93 170/61/93 167/62/93
f 141/293/94 142/294/94 168/60/94 170/61/94
f 112/295/95 143/326/95 142/325/95 141/324/95 140/323/95 139/322/95 138/321/95 137/320/95 136/319/95 135/318/95 134/317/95 133/316/95 132/315/95 131/314/95 130/313/95 129/312/95 128/311/95 127/310/95 126/309/95 125/308/95 124/307/95 123/306/95 122/305/95 121/304/95 120/303/95 119/302/95 118/301/95 117/300/95 116/299/95 115/298/95 114/297/95 113/296/95
f 142/294/96 143/327/96 169/59/96 168/60/96
f 143/327/97 112/238/97 164/58/97 169/59/97
f 171/70/14 71/71/14 72/330/14 172/329/14 173/328/14
f 162/181/98 57/182/98 61/173/98 159/174/98
f 158/264/98 88/331/98 160/263/98
f 161/332/88 147/336/88 148/335/88 174/334/88 163/333/88
f 149/166/42 16/167/42 93/339/42 154/338/42 153/337/42
f 172/329/15 72/330/15 74/79/15 176/80/15 177/340/15
f 147/336/89 161/332/89 162/344/89 159/343/89 157/342/89 155/341/89
f 157/175/43 54/176/43 55/346/43 155/345/43
f 164/347/99 186/350/99 144/349/99 145/348/99
f 1/349/31 2/361/31 3/360/31 4/359/31 5/358/31 6/357/31 7/356/31 8/355/31 9/354/31 10/353/31 11/352/31 12/351/31 164/347/31 145/348/31
f 160/362/21 88/97/21 13/98/21 182/365/21 184/364/21 183/363/21
f 156/172/44 89/170/44 88/331/44 158/264/44
f 181/89/19 82/87/19 175/366/19
